Coordinates
version=1
nRows=5
nColumns=42
inDegrees=yes

Units are S.I. units (second, meters, Newtons, ...)
If the header above contains a line with 'inDegrees', this indicates whether rotational values are in degrees (yes) or radians (no).

endheader
time	pelvis_tilt	pelvis_list	pelvis_rotation	pelvis_tx	pelvis_ty	pelvis_tz	hip_flexion_r	hip_adduction_r	hip_rotation_r	knee_angle_r	knee_angle_r_beta	ankle_angle_r	subtalar_angle_r	mtp_angle_r	hip_flexion_l	hip_adduction_l	hip_rotation_l	knee_angle_l	knee_angle_l_beta	ankle_angle_l	subtalar_angle_l	mtp_angle_l	lumbar_extension	lumbar_bending	lumbar_rotation	sh_tx_r	sh_ty_r	sh_tz_r	sh_plane_elev_r	sh_elev_r	sh_axial_rot_r	elbow_flex_r	pro_sup_r	sh_tx_l	sh_ty_l	sh_tz_l	sh_plane_elev_l	sh_elev_l	sh_axial_rot_l	elbow_flex_l	pro_sup_l
      0.00000000	     -4.74450791	     -0.57001334	     -2.42274592	      0.33850775	      0.94181965	     -0.01203873	      1.58839847	     -2.13316692	     -2.75732014	      7.18445794	      0.12539245	     -0.48682662	    -20.35886766	     -5.21082107	      6.17367656	     -8.03668052	     -4.52638174	      9.00593368	      0.15718319	      7.50243390	     -5.29983232	     -5.21082107	     -0.68601520	      3.55102432	     -0.41544799	     -0.00686685	     -0.01843364	     -0.00632242	     -8.01558436	      5.79710416	      1.12568952	     30.14952713	     85.10144164	     -0.00757263	     -0.01835759	     -0.00605590	      7.68421155	      4.31436833	     -1.98048887	     26.84677919	     76.87502864
      0.01666670	     -6.34062115	     -0.17884608	     -2.30188639	      0.33963622	      0.93668126	     -0.01280809	      3.56005908	     -2.25310398	     -2.03594990	      7.33172470	      0.12796274	      3.58006709	    -19.06687761	     -5.92004345	      8.38590958	     -7.42308764	     -4.12516540	      8.54305430	      0.14910443	      7.19277577	     -3.63428929	     -5.92004345	      1.76385348	      3.24076290	     -0.80060554	     -0.01006058	     -0.01833497	     -0.00673942	    -14.16662579	      4.10449319	      2.02503550	     30.43407802	     84.20542417	     -0.01037638	     -0.01813089	     -0.00636156	     -0.18914708	      2.71822150	     -1.92572654	     26.29002701	     79.24722642
      0.03333330	     -6.75277013	      0.35754994	     -1.97968334	      0.33865809	      0.93374766	     -0.02191445	      3.83260893	     -3.31832405	     -3.08351757	      6.98830885	      0.12196900	      3.26556678	    -18.48079722	     -6.12728262	      8.69697831	     -6.64025561	     -4.40032551	      7.87619276	      0.13746550	      6.93255623	     -2.29396335	     -6.12728262	      2.27058795	      2.54436294	     -1.48178170	     -0.01289174	     -0.01815326	     -0.00661148	    -13.72859733	      3.46520804	      1.15335886	     30.51957077	     82.51418740	     -0.01375553	     -0.01805879	     -0.00612317	      1.45749553	      2.93850717	     -2.48186153	     26.24827560	     78.08113654
      0.05000000	     -6.79386769	      0.65982836	     -1.78329818	      0.33421905	      0.93461506	     -0.02645027	      3.84854957	     -4.15995084	     -3.33006847	      6.52463114	      0.11387630	      3.25752485	    -17.77700892	     -6.20768535	      8.35603734	     -6.04678117	     -4.20067784	      6.87898108	      0.12006087	      6.58908844	     -2.33827339	     -6.20768535	      2.16550566	      2.06728362	     -1.64975998	     -0.01420301	     -0.01824582	     -0.00653485	    -13.06719694	      3.11680396	      1.91250649	     30.57140982	     82.15441950	     -0.01525710	     -0.01808282	     -0.00580736	      2.20548694	      3.27456236	     -1.95775587	     27.02871275	     77.84378666
      0.06666670	     -6.54630747	      0.76691981	     -1.63227210	      0.32938517	      0.93852510	     -0.03144191	      3.62573866	     -4.68188313	     -3.39343728	      5.94827083	      0.10381691	      2.62035134	    -17.32995083	     -6.33353631	      7.96192383	     -5.62520147	     -3.66197678	      6.13249784	      0.10703228	      6.11009939	     -2.93672240	     -6.33353631	      1.60383153	      2.08910794	     -2.19415883	     -0.01141072	     -0.01818080	     -0.00632656	    -11.83292401	      3.04328700	      3.04628518	     30.75127299	     81.78741870	     -0.01467064	     -0.01805554	     -0.00556948	      3.34078606	      3.38476729	     -1.28375143	     27.24265623	     77.47840883
